<?xml version="1.0" encoding="UTF-8" standalone="no"?>
<svg
   width="420"
   height="420"
   version="1.1"
   id="svg6"
   viewBox="0 0 420 420"
   xmlns="http://www.w3.org/2000/svg"
   xmlns:svg="http://www.w3.org/2000/svg">
  <defs
     id="defs10" />
  <path
     d="m 410,210 -0.158,66.098 -0.474,21.05 -0.793,15.21 -1.112,12.271 -1.438,10.404 -1.766,9.067 -2.102,8.036 -2.446,7.198 -2.8,6.492 -3.167,5.877 -3.549,5.33 -3.951,4.834 -4.377,4.377 -4.834,3.951 -5.33,3.549 -5.877,3.167 -6.492,2.8 -7.198,2.446 -8.036,2.102 -9.067,1.766 -10.404,1.438 -12.271,1.112 -15.21,0.793 -21.05,0.474 -65.947,0.158 -66.249,-0.158 -21.05,-0.474 -15.21,-0.793 -12.271,-1.112 -10.404,-1.438 -9.067,-1.766 -8.036,-2.102 -7.198,-2.446 -6.492,-2.8 -5.877,-3.167 -5.33,-3.549 -4.834,-3.951 -4.377,-4.377 -3.951,-4.834 -3.549,-5.33 -3.167,-5.877 -2.8,-6.492 -2.446,-7.198 -2.102,-8.036 -1.766,-9.067 -1.438,-10.404 -1.112,-12.271 -0.793,-15.21 -0.474,-21.05 -0.158,-65.899 0.158,-66.297 0.474,-21.05 0.793,-15.21 1.112,-12.271 1.438,-10.404 1.766,-9.067 2.102,-8.036 2.446,-7.198 2.8,-6.492 3.167,-5.877 3.549,-5.33 3.951,-4.834 4.377,-4.377 4.834,-3.951 5.33,-3.549 5.877,-3.167 6.492,-2.8 7.198,-2.446 8.036,-2.102 9.067,-1.766 10.404,-1.438 12.271,-1.112 15.21,-0.793 21.05,-0.474 65.863,-0.158 66.333,0.158 21.05,0.474 15.21,0.793 12.271,1.112 10.403,1.438 9.068,1.766 8.036,2.102 7.198,2.446 6.492,2.8 5.877,3.167 5.33,3.549 4.834,3.951 4.377,4.377 3.951,4.834 3.549,5.33 3.167,5.877 2.8,6.492 2.446,7.198 2.102,8.036 1.766,9.067 1.438,10.404 1.112,12.271 0.793,15.21 0.474,21.05 0.158,65.835 z"
     style="fill:#e01b24;fill-opacity:1;stroke:none;stroke-width:1;stroke-miterlimit:4;stroke-dasharray:none;stroke-opacity:0.5"
     id="path3" />
  <g
     id="g1958"
     transform="matrix(-1.1072834,1.1072834,-1.1072834,-1.1072834,514.56848,221.63636)"
     style="stroke-width:2.41359">
    <rect
       style="fill:#ffffff;stroke-width:18.6634"
       id="rect1345-26"
       width="67.733322"
       height="67.733337"
       x="132.27513"
       y="75.05072" />
    <rect
       style="fill:#ffffff;stroke-width:9.33167"
       id="rect1345-03"
       width="33.866669"
       height="33.866669"
       x="98.408463"
       y="142.78406" />
    <rect
       style="fill:#ffffff;stroke-width:9.33167"
       id="rect1345-41"
       width="33.866669"
       height="33.866669"
       x="64.541801"
       y="176.65073" />
    <rect
       style="fill:#ffffff;stroke-width:16.1629"
       id="rect1345-4"
       width="33.866669"
       height="101.60001"
       x="166.1418"
       y="108.91739" />
    <rect
       style="fill:#ffffff;stroke-width:16.1629"
       id="rect1345"
       width="101.60001"
       height="33.866669"
       x="64.541794"
       y="75.05072" />
  </g>
</svg>
